<?xml version="1.0" encoding="utf-8"?>
<!-- Generator: Adobe Illustrator 23.0.4, SVG Export Plug-In . SVG Version: 6.00 Build 0)  -->
<svg version="1.1" id="Layer_1" xmlns="http://www.w3.org/2000/svg" xmlns:xlink="http://www.w3.org/1999/xlink" x="0px" y="0px"
	 width="184.3px" height="160.2px" viewBox="0 0 184.3 160.2" style="enable-background:new 0 0 184.3 160.2;" xml:space="preserve"
	>
<style type="text/css">
	.st0{fill:#F7BD13;}
	.st1{fill:none;stroke:#000000;stroke-width:0.5;stroke-miterlimit:10;}
</style>
<g id="silkscreen">
	<path d="M182.6,20.5V37H166V20.5H182.6 M183.1,20h-17.6v17.6h17.6V20L183.1,20z"/>
</g>
<g id="keepout">
	<path class="st0" d="M9.9,141.4c-4.9,0-8.8,3.9-8.8,8.8S5,159,9.9,159s8.8-3.9,8.8-8.8S14.8,141.4,9.9,141.4z M9.9,154.1
		c-2.2,0-3.9-1.7-3.9-3.9s1.7-3.9,3.9-3.9s3.9,1.7,3.9,3.9S12.1,154.1,9.9,154.1z"/>
	<path class="st0" d="M9.9,1.1C5,1.1,1.1,5,1.1,9.9s3.9,8.8,8.8,8.8s8.8-3.9,8.8-8.8S14.8,1.1,9.9,1.1z M9.9,13.8
		C7.8,13.8,6,12.1,6,9.9S7.8,6,9.9,6c2.2,0,3.9,1.7,3.9,3.9S12.1,13.8,9.9,13.8z"/>
	<path class="st0" d="M174.3,1.1c-4.9,0-8.8,3.9-8.8,8.8s3.9,8.8,8.8,8.8s8.8-3.9,8.8-8.8S179.2,1.1,174.3,1.1z M174.3,13.8
		c-2.2,0-3.9-1.7-3.9-3.9s1.7-3.9,3.9-3.9s3.9,1.7,3.9,3.9S176.5,13.8,174.3,13.8z"/>
	<path class="st0" d="M174.3,141.4c-4.9,0-8.8,3.9-8.8,8.8s3.9,8.8,8.8,8.8s8.8-3.9,8.8-8.8S179.2,141.4,174.3,141.4z M174.3,154.1
		c-2.2,0-3.9-1.7-3.9-3.9s1.7-3.9,3.9-3.9s3.9,1.7,3.9,3.9S176.5,154.1,174.3,154.1z"/>
</g>
<g id="soldermask">
</g>
<path id="board" class="st1" d="M175.7,0H8.5C3.8,0,0,3.8,0,8.5v45.4c0,1.6,1.3,2.8,2.8,2.8h8.5c1.6,0,2.8,1.3,2.8,2.8V102
	c0,1.6-1.3,2.8-2.8,2.8H2.8c-1.6,0-2.8,1.3-2.8,2.8v43.9c0,4.7,3.8,8.5,8.5,8.5h167.2c4.7,0,8.5-3.8,8.5-8.5V8.5
	C184.3,3.8,180.4,0,175.7,0z M9.9,13.8C7.7,13.8,6,12.1,6,9.9S7.7,6,9.9,6c2.2,0,3.9,1.7,3.9,3.9S12.1,13.8,9.9,13.8z M131.1,148.9
	c0,1.9-1.5,3.5-3.5,3.5c-2,0-3.6-1.6-3.5-3.5v-42.5c0-1.9,1.5-3.5,3.5-3.5c1.9,0,3.5,1.5,3.5,3.5V148.9z"/>
</svg>
