<?xml version="1.0" encoding="utf-8"?>
<!-- Generator: Adobe Illustrator 23.0.4, SVG Export Plug-In . SVG Version: 6.00 Build 0)  -->
<svg version="1.2" baseProfile="tiny" id="_x30_" xmlns="http://www.w3.org/2000/svg" xmlns:xlink="http://www.w3.org/1999/xlink"
	 x="0px" y="0px" width="184.3px" height="160.2px" viewBox="0 0 184.3 160.2" xml:space="preserve">
<path id="board" d="M175.7,0.7c4.3,0,7.8,3.5,7.8,7.8v143.1c0,4.3-3.5,7.8-7.8,7.8H8.5c-4.3,0-7.8-3.5-7.8-7.8v-43.9
	c0-1.2,1-2.1,2.1-2.1h8.5c2,0,3.5-1.6,3.5-3.5V59.5c0-2-1.6-3.5-3.5-3.5H2.8c-1.2,0-2.1-1-2.1-2.1V8.5c0-4.3,3.5-7.8,7.8-7.8H175.7
	 M127.6,152.4c2,0,3.5-1.6,3.5-3.5v-42.5c0-2-1.6-3.5-3.5-3.5c-2,0-3.5,1.6-3.5,3.5v42.5C124,150.8,125.6,152.4,127.6,152.4
	 M175.7,0H8.5C3.8,0,0,3.8,0,8.5v45.4c0,1.6,1.3,2.8,2.8,2.8h8.5c1.6,0,2.8,1.3,2.8,2.8V102c0,1.6-1.3,2.8-2.8,2.8H2.8
	c-1.6,0-2.8,1.3-2.8,2.8v43.9c0,4.7,3.8,8.5,8.5,8.5h167.2c4.7,0,8.5-3.8,8.5-8.5V8.5C184.3,3.8,180.4,0,175.7,0L175.7,0z
	 M127.6,151.7c-1.6,0-2.8-1.3-2.8-2.8v-42.5c0-1.6,1.3-2.8,2.8-2.8c1.6,0,2.8,1.3,2.8,2.8v42.5C130.4,150.4,129.1,151.7,127.6,151.7
	L127.6,151.7z"/>
<g id="copper1">
	<path fill="#F7BD13" d="M9.9,141.4c-4.9,0-8.8,3.9-8.8,8.8s3.9,8.8,8.8,8.8s8.8-3.9,8.8-8.8S14.8,141.4,9.9,141.4z M9.9,154.1
		c-2.2,0-3.9-1.7-3.9-3.9s1.7-3.9,3.9-3.9c2.2,0,3.9,1.7,3.9,3.9S12.1,154.1,9.9,154.1z"/>
	<path fill="#F7BD13" d="M9.9,1.1c-4.9,0-8.8,3.9-8.8,8.8s3.9,8.8,8.8,8.8s8.8-3.9,8.8-8.8S14.8,1.1,9.9,1.1z M9.9,13.8
		C7.8,13.8,6,12.1,6,9.9S7.8,6,9.9,6c2.2,0,3.9,1.7,3.9,3.9S12.1,13.8,9.9,13.8z"/>
	<path fill="#F7BD13" d="M174.3,1.1c-4.9,0-8.8,3.9-8.8,8.8s3.9,8.8,8.8,8.8s8.8-3.9,8.8-8.8S179.2,1.1,174.3,1.1z M174.3,13.8
		c-2.2,0-3.9-1.7-3.9-3.9s1.7-3.9,3.9-3.9c2.2,0,3.9,1.7,3.9,3.9S176.5,13.8,174.3,13.8z"/>
	<path fill="#F7BD13" d="M174.3,141.4c-4.9,0-8.8,3.9-8.8,8.8s3.9,8.8,8.8,8.8s8.8-3.9,8.8-8.8S179.2,141.4,174.3,141.4z
		 M174.3,154.1c-2.2,0-3.9-1.7-3.9-3.9s1.7-3.9,3.9-3.9c2.2,0,3.9,1.7,3.9,3.9S176.5,154.1,174.3,154.1z"/>
	<g id="copper0">
	</g>
</g>
<g id="silkscreen">
	<path d="M182.6,20.5V37H166V20.5H182.6 M183.1,20h-17.6v17.6h17.6V20L183.1,20z"/>
</g>
</svg>
