<?xml version="1.0" encoding="utf-8"?>
<!-- Generator: Adobe Illustrator 23.0.3, SVG Export Plug-In . SVG Version: 6.00 Build 0)  -->
<svg version="1.2" baseProfile="tiny" id="layer1" xmlns="http://www.w3.org/2000/svg" xmlns:xlink="http://www.w3.org/1999/xlink"
	 x="0px" y="0px" width="184.3px" height="160.2px" viewBox="0 0 184.3 160.2" xml:space="preserve">
<g id="board">
	<path fill="none" stroke="#000000" stroke-width="0.5" stroke-miterlimit="10" d="M0,57"/>
	<path fill="#C4C4C4" d="M175.8,0H8.5C3.8,0,0,3.8,0,8.5v45.4c0,1.6,1.3,2.8,2.8,2.8h8.4c1.6,0,2.8,1.3,2.8,2.8v42.5
		c0,1.6-1.3,2.8-2.8,2.8H2.8c-1.6,0-2.8,1.3-2.8,2.8v43.9c0,4.7,3.8,8.5,8.5,8.5h167.3c4.7,0,8.5-3.8,8.5-8.5V8.5
		C184.3,3.8,180.4,0,175.8,0z M9.9,15.2c-2.2,0-3.9-1.7-3.9-3.9s1.7-3.9,3.9-3.9c2.2,0,3.9,1.7,3.9,3.9S12.1,15.2,9.9,15.2z
		 M9.9,154.1c-2.2,0-3.9-1.7-3.9-3.9c0-2.2,1.7-3.9,3.9-3.9c2.2,0,3.9,1.7,3.9,3.9C13.8,152.4,12.1,154.1,9.9,154.1z M130.4,148.9
		c0,1.6-1.3,2.8-2.8,2.8c-1.6,0-2.8-1.3-2.8-2.8v-42.5c0-1.6,1.3-2.8,2.8-2.8c1.6,0,2.8,1.3,2.8,2.8V148.9z M174.3,154.1
		c-2.2,0-3.9-1.7-3.9-3.9c0-2.2,1.7-3.9,3.9-3.9c2.2,0,3.9,1.7,3.9,3.9C178.2,152.4,176.5,154.1,174.3,154.1z M174.3,15.2
		c-2.2,0-3.9-1.7-3.9-3.9s1.7-3.9,3.9-3.9c2.2,0,3.9,1.7,3.9,3.9S176.5,15.2,174.3,15.2z"/>
</g>
<g id="silkscreen">
	<path fill="none" stroke="#000000" stroke-miterlimit="10" d="M131.1,148.9c0,1.9-1.5,3.5-3.5,3.5s-3.6-1.6-3.5-3.5v-42.5
		c0-1.9,1.5-3.5,3.5-3.5c1.9,0,3.5,1.5,3.5,3.5V148.9z"/>
	<path fill="#FFCFCF" d="M9.9,3.6c4.3,0,7.8,3.5,7.8,7.8s-3.5,7.8-7.8,7.8s-7.8-3.5-7.8-7.8S5.6,3.6,9.9,3.6 M9.9,2.6
		c-4.9,0-8.8,3.9-8.8,8.8c0,4.9,3.9,8.8,8.8,8.8s8.8-3.9,8.8-8.8C18.7,6.5,14.8,2.6,9.9,2.6L9.9,2.6z"/>
	<path fill="#FFCFCF" d="M174.3,3.6c4.3,0,7.8,3.5,7.8,7.8s-3.5,7.8-7.8,7.8s-7.8-3.5-7.8-7.8S170,3.6,174.3,3.6 M174.3,2.6
		c-4.9,0-8.8,3.9-8.8,8.8c0,4.9,3.9,8.8,8.8,8.8s8.8-3.9,8.8-8.8C183.1,6.5,179.2,2.6,174.3,2.6L174.3,2.6z"/>
	<path fill="#FFCFCF" d="M174.3,142.4c4.3,0,7.8,3.5,7.8,7.8s-3.5,7.8-7.8,7.8s-7.8-3.5-7.8-7.8S170,142.4,174.3,142.4 M174.3,141.4
		c-4.9,0-8.8,3.9-8.8,8.8s3.9,8.8,8.8,8.8s8.8-3.9,8.8-8.8S179.2,141.4,174.3,141.4L174.3,141.4z"/>
	<path fill="#FFCFCF" d="M9.9,142.4c4.3,0,7.8,3.5,7.8,7.8s-3.5,7.8-7.8,7.8s-7.8-3.5-7.8-7.8S5.6,142.4,9.9,142.4 M9.9,141.4
		c-4.9,0-8.8,3.9-8.8,8.8s3.9,8.8,8.8,8.8s8.8-3.9,8.8-8.8S14.8,141.4,9.9,141.4L9.9,141.4z"/>
	<path d="M164.8,5.3v12.2H19.4V5.3H164.8 M165.8,4.3H18.4v14.2h147.4V4.3L165.8,4.3z"/>
</g>
<g id="soldermask">
	<circle fill="none" cx="9.9" cy="11.3" r="8.8"/>
	<circle fill="none" cx="174.3" cy="11.3" r="8.8"/>
	<circle fill="none" cx="174.3" cy="150.2" r="8.8"/>
	<circle fill="none" cx="9.9" cy="150.2" r="8.8"/>
</g>
</svg>
