<?xml version="1.0" encoding="utf-8"?>
<!-- Generator: Fusion 360, Shaper Origin Export Add-In, Version 1.4.1  -->
<svg enable-background="new 0 0 6.5 5.65" height="5.65cm" shaper:fusionaddin="version:1.4.1" version="1.1" viewBox="0 0 6.5 5.65" width="6.5cm" x="0cm" xml:space="preserve" xmlns="http://www.w3.org/2000/svg" xmlns:shaper="http://www.shapertools.com/namespaces/shaper" xmlns:xlink="http://www.w3.org/1999/xlink" y="0cm"><path d="M3.25,-2.525 L3.25,2.525 A0.3,0.3 0 0,1 2.95,2.825 L-2.95,2.825 A0.3,0.3 90 0,1 -3.25,2.525 L-3.25,0.925 A0.1,0.1 180 0,1 -3.15,0.825 L-2.85,0.825" fill="none" shaper:cutDepth="0" shaper:pathType="guide" stroke="rgb(100,100,100)" stroke-width="2" transform="matrix(1,0,0,-1,3.25,2.825)" vector-effect="non-scaling-stroke" /><path d="M-3.15,-0.875 L-2.85,-0.875 A0.1,0.1 90 0,1 -3.25,-0.975 L-3.25,-2.525 A0.3,0.3 180 0,1 -2.95,-2.825 L2.95,-2.825 A0.3,0.3 270 0,1 3.25,-2.525 L3.25,2.525" fill="none" shaper:cutDepth="0" shaper:pathType="guide" stroke="rgb(100,100,100)" stroke-width="2" transform="matrix(1,0,0,-1,3.25,2.825)" vector-effect="non-scaling-stroke" /><path d="M-3.0375,-2.475 a0.1375,0.1375 0 1,1 0.275,0 a0.1375,0.1375 0 1,1 -0.275,0z" fill="none" shaper:cutDepth="0" shaper:pathType="guide" stroke="rgb(100,100,100)" stroke-width="2" transform="matrix(1,0,0,-1,3.25,2.825)" vector-effect="non-scaling-stroke" /><path d="M-3.0375,2.475 a0.1375,0.1375 0 1,1 0.275,0 a0.1375,0.1375 0 1,1 -0.275,0z" fill="none" shaper:cutDepth="0" shaper:pathType="guide" stroke="rgb(100,100,100)" stroke-width="2" transform="matrix(1,0,0,-1,3.25,2.825)" vector-effect="non-scaling-stroke" /><path d="M2.7625,2.475 a0.1375,0.1375 0 1,1 0.275,0 a0.1375,0.1375 0 1,1 -0.275,0z" fill="none" shaper:cutDepth="0" shaper:pathType="guide" stroke="rgb(100,100,100)" stroke-width="2" transform="matrix(1,0,0,-1,3.25,2.825)" vector-effect="non-scaling-stroke" /><path d="M2.7625,-2.475 a0.1375,0.1375 0 1,1 0.275,0 a0.1375,0.1375 0 1,1 -0.275,0z" fill="none" shaper:cutDepth="0" shaper:pathType="guide" stroke="rgb(100,100,100)" stroke-width="2" transform="matrix(1,0,0,-1,3.25,2.825)" vector-effect="non-scaling-stroke" /><path d="M-3.15,-0.875 L-2.85,-0.875 A0.1,0.1 270 0,1 -2.75,-0.775 L-2.75,0.725 A0.1,0.1 0 0,1 -2.85,0.825" fill="none" shaper:cutDepth="0" shaper:pathType="guide" stroke="rgb(100,100,100)" stroke-width="2" transform="matrix(1,0,0,-1,3.25,2.825)" vector-effect="non-scaling-stroke" /><path d="M1.35,-2.425 L1.35,-0.925 A0.1,0.1 0 0,1 1.15,-0.925 L1.15,-2.425 A0.1,0.1 180 0,1 1.35,-2.425z" fill="none" shaper:cutDepth="0" shaper:pathType="guide" stroke="rgb(100,100,100)" stroke-width="2" transform="matrix(1,0,0,-1,3.25,2.825)" vector-effect="non-scaling-stroke" /></svg>